<?xml version="1.0" encoding="UTF-8" standalone="no" ?>
<!DOCTYPE svg PUBLIC "-//W3C//DTD SVG 1.1//EN" "http://www.w3.org/Graphics/SVG/1.1/DTD/svg11.dtd">
<svg xmlns="http://www.w3.org/2000/svg" xmlns:xlink="http://www.w3.org/1999/xlink" version="1.1" width="1080" height="1080" viewBox="0 0 1080 1080" xml:space="preserve">
<desc>Created with Fabric.js 5.2.4</desc>
<defs>
</defs>
<g transform="matrix(1 0 0 1 540 540)" id="4994e535-161e-4bb5-acbd-33c6c99d06f8"  >
</g>
<g transform="matrix(1 0 0 1 540 540)" id="ce6eb4a3-30e8-4ec3-8e4f-67019bd74135"  >
<rect style="stroke: none; stroke-width: 1; stroke-dasharray: none; stroke-linecap: butt; stroke-dashoffset: 0; stroke-linejoin: miter; stroke-miterlimit: 4; fill: rgb(255,255,255); fill-rule: nonzero; opacity: 1; visibility: hidden;" vector-effect="non-scaling-stroke"  x="-540" y="-540" rx="0" ry="0" width="1080" height="1080" />
</g>
<g transform="matrix(17.38 0 0 17.38 1445 519.78)"  >
<g style=""   >
		<g transform="matrix(1 0 0 1 -54.6 -2.08)"  >
<path style="stroke: none; stroke-width: 1; stroke-dasharray: none; stroke-linecap: butt; stroke-dashoffset: 0; stroke-linejoin: miter; stroke-miterlimit: 4; fill: rgb(233,50,124); fill-rule: nonzero; opacity: 1;" vector-effect="non-scaling-stroke"  transform=" translate(-14.39, -12.92)" d="M 20.99 23.759 L 3.05 11.384 C 1.232 10.13 1.85 7.51898 4.117 6.90498 L 23.184 1.72998 C 23.5879 1.58424 24.0207 1.53693 24.4466 1.59198 C 24.8724 1.64703 25.279 1.80285 25.6326 2.04651 C 25.9861 2.29017 26.2765 2.61464 26.4795 2.99299 C 26.6825 3.37134 26.7924 3.79266 26.8 4.22198 L 25.67 21.771 C 25.536 23.854 22.808 25.013 20.99 23.759 Z" stroke-linecap="round" />
</g>
		<g transform="matrix(1 0 0 1 -51.9 0.16)"  >
<path style="stroke: none; stroke-width: 1; stroke-dasharray: none; stroke-linecap: butt; stroke-dashoffset: 0; stroke-linejoin: miter; stroke-miterlimit: 4; fill: rgb(29,172,227); fill-rule: nonzero; opacity: 1;" vector-effect="non-scaling-stroke"  transform=" translate(-17.09, -15.17)" d="M 15.3 26.814 L 4.73098 6.14504 C 4.48938 5.6722 4.38307 5.14181 4.42376 4.61238 C 4.46445 4.08295 4.65057 3.57504 4.96158 3.14467 C 5.2726 2.7143 5.69643 2.37818 6.18634 2.17338 C 6.67625 1.96858 7.2132 1.90306 7.73798 1.98405 L 27.325 5.00704 C 27.7759 5.07665 28.2039 5.2523 28.5738 5.51955 C 28.9436 5.78681 29.2447 6.13803 29.4524 6.54434 C 29.66 6.95065 29.7683 7.40044 29.7682 7.85674 C 29.7681 8.31303 29.6597 8.7628 29.452 9.16904 L 20.429 26.815 C 20.1867 27.2865 19.8191 27.6821 19.3666 27.9582 C 18.9141 28.2344 18.3943 28.3804 17.8642 28.3803 C 17.3341 28.3802 16.8143 28.234 16.3619 27.9577 C 15.9095 27.6813 15.5421 27.2856 15.3 26.814 L 15.3 26.814 Z" stroke-linecap="round" />
</g>
		<g transform="matrix(1 0 0 1 -53.12 -1.22)"  >
<path style="stroke: none; stroke-width: 1; stroke-dasharray: none; stroke-linecap: butt; stroke-dashoffset: 0; stroke-linejoin: miter; stroke-miterlimit: 4; fill: rgb(0,26,73); fill-rule: nonzero; opacity: 1;" vector-effect="non-scaling-stroke"  transform=" translate(-15.88, -13.78)" d="M 26.752 4.91801 L 16.988 3.41101 L 5 6.66601 L 9.785 16.027 L 20.99 23.759 C 21.2372 23.9277 21.5091 24.0569 21.796 24.142 L 26.052 15.819 L 26.752 4.91801 Z" stroke-linecap="round" />
</g>
</g>
</g>
</svg>